<svg width="102" height="153" viewBox="0 0 102 153" fill="none" xmlns="http://www.w3.org/2000/svg">
<g filter="url(#filter0_d_3_53208)">
<rect x="1" width="100" height="150" rx="10" fill="white" shape-rendering="crispEdges"/>
<path d="M38.0405 10.8931C13.0136 12.7441 9.65842 40.509 10.0253 65.9602C10.9591 130.745 10.0253 140 54.3828 140C90.8026 140 91.7364 115.937 90.8026 105.757C89.4018 71.0505 90.8026 79.38 90.8026 45.5993C90.8026 7.97691 69.3242 8.57938 38.0405 10.8931Z" fill="#F5F5F5"/>
<path d="M44.392 80.68C44.392 72.936 53.992 70.248 53.992 65.384C53.992 63.528 52.712 62.312 50.216 62.312C47.336 62.312 45.416 64.296 44.072 67.368L34.344 61.8C37.288 54.696 43.688 51.24 50.664 51.24C58.472 51.24 65.384 55.848 65.384 63.976C65.384 73.576 55.272 76.264 55.272 80.68H44.392Z" fill="#AAAAAA"/>
<path d="M49.832 97.896C46.12 97.896 43.176 94.952 43.176 91.24C43.176 87.592 46.12 84.584 49.832 84.584C53.544 84.584 56.488 87.592 56.488 91.24C56.488 94.952 53.544 97.896 49.832 97.896Z" fill="#AAAAAA"/>
</g>
<defs>
<filter id="filter0_d_3_53208" x="0" y="0" width="102" height="153" filterUnits="userSpaceOnUse" color-interpolation-filters="sRGB">
<feFlood flood-opacity="0" result="BackgroundImageFix"/>
<feColorMatrix in="SourceAlpha" type="matrix" values="0 0 0 0 0 0 0 0 0 0 0 0 0 0 0 0 0 0 127 0" result="hardAlpha"/>
<feOffset dy="2"/>
<feGaussianBlur stdDeviation="0.5"/>
<feComposite in2="hardAlpha" operator="out"/>
<feColorMatrix type="matrix" values="0 0 0 0 0 0 0 0 0 0 0 0 0 0 0 0 0 0 0.15 0"/>
<feBlend mode="normal" in2="BackgroundImageFix" result="effect1_dropShadow_3_53208"/>
<feBlend mode="normal" in="SourceGraphic" in2="effect1_dropShadow_3_53208" result="shape"/>
</filter>
</defs>
</svg>
