<svg width="110" height="160" viewBox="0 0 110 160" fill="none" xmlns="http://www.w3.org/2000/svg">
<g filter="url(#filter0_d_11_80829)">
<rect x="5" y="3" width="100" height="150" rx="10" fill="white" shape-rendering="crispEdges"/>
<path d="M42.0405 13.8931C17.0136 15.7441 13.6584 43.509 14.0253 68.9602C14.9591 133.745 14.0253 143 58.3828 143C94.8026 143 95.7364 118.937 94.8026 108.757C93.4018 74.0505 94.8026 82.38 94.8026 48.5993C94.8026 10.9769 73.3242 11.5794 42.0405 13.8931Z" fill="#EBF5F3"/>
<path d="M48.392 83.68C48.392 75.936 57.992 73.248 57.992 68.384C57.992 66.528 56.712 65.312 54.216 65.312C51.336 65.312 49.416 67.296 48.072 70.368L38.344 64.8C41.288 57.696 47.688 54.24 54.664 54.24C62.472 54.24 69.384 58.848 69.384 66.976C69.384 76.576 59.272 79.264 59.272 83.68H48.392Z" fill="#B6E9DE"/>
<path d="M53.832 100.896C50.12 100.896 47.176 97.952 47.176 94.24C47.176 90.592 50.12 87.584 53.832 87.584C57.544 87.584 60.488 90.592 60.488 94.24C60.488 97.952 57.544 100.896 53.832 100.896Z" fill="#B6E9DE"/>
</g>
<defs>
<filter id="filter0_d_11_80829" x="0" y="0" width="110" height="160" filterUnits="userSpaceOnUse" color-interpolation-filters="sRGB">
<feFlood flood-opacity="0" result="BackgroundImageFix"/>
<feColorMatrix in="SourceAlpha" type="matrix" values="0 0 0 0 0 0 0 0 0 0 0 0 0 0 0 0 0 0 127 0" result="hardAlpha"/>
<feOffset dy="2"/>
<feGaussianBlur stdDeviation="2.5"/>
<feComposite in2="hardAlpha" operator="out"/>
<feColorMatrix type="matrix" values="0 0 0 0 0 0 0 0 0 0 0 0 0 0 0 0 0 0 0.25 0"/>
<feBlend mode="normal" in2="BackgroundImageFix" result="effect1_dropShadow_11_80829"/>
<feBlend mode="normal" in="SourceGraphic" in2="effect1_dropShadow_11_80829" result="shape"/>
</filter>
</defs>
</svg>
