<svg width="54" height="45" viewBox="0 0 54 45" fill="none" xmlns="http://www.w3.org/2000/svg">
<mask id="path-1-inside-1_3444_888" fill="white">
<path d="M0 0.5H54V44.5H0V0.5Z"/>
</mask>
<path d="M53 0.5V44.5H55V0.5H53Z" fill="#D5D5D5" mask="url(#path-1-inside-1_3444_888)"/>
<path d="M33.2031 18.3281C33.3906 18.75 33.25 19.1719 32.9219 19.5L30.9062 21.3281C30.9531 21.7031 30.9531 22.125 30.9531 22.5C30.9531 22.9219 30.9531 23.3438 30.9062 23.7188L32.9219 25.5469C33.25 25.8281 33.3906 26.2969 33.2031 26.7188C33.0156 27.2812 32.7812 27.7969 32.5 28.3125L32.2656 28.6875C31.9375 29.2031 31.6094 29.7188 31.2344 30.1406C30.9531 30.5156 30.4844 30.6094 30.0625 30.4688L27.4844 29.6719C26.8281 30.1406 26.125 30.5156 25.4219 30.8438L24.8125 33.5156C24.7188 33.9375 24.3906 34.2656 23.9688 34.3594C23.3125 34.4531 22.6562 34.5 21.9531 34.5C21.2969 34.5 20.6406 34.4531 19.9844 34.3594C19.5625 34.2656 19.2344 33.9375 19.1406 33.5156L18.5312 30.8438C17.7812 30.5156 17.125 30.1406 16.4688 29.6719L13.8906 30.4688C13.4688 30.6094 13 30.5156 12.7188 30.1875C12.3438 29.7188 12.0156 29.2031 11.6875 28.6875L11.4531 28.3125C11.1719 27.7969 10.9375 27.2812 10.75 26.7188C10.5625 26.2969 10.7031 25.875 11.0312 25.5469L13.0469 23.7188C13 23.3438 13 22.9219 13 22.5C13 22.125 13 21.7031 13.0469 21.3281L11.0312 19.5C10.7031 19.1719 10.5625 18.75 10.75 18.3281C10.9375 17.7656 11.1719 17.25 11.4531 16.7344L11.6875 16.3594C12.0156 15.8438 12.3438 15.3281 12.7188 14.8594C13 14.5312 13.4688 14.4375 13.8906 14.5781L16.4688 15.375C17.125 14.9062 17.8281 14.4844 18.5312 14.2031L19.1406 11.5312C19.2344 11.1094 19.5625 10.7812 19.9844 10.6875C20.6406 10.5938 21.2969 10.5 22 10.5C22.6562 10.5 23.3125 10.5938 23.9688 10.6875C24.3906 10.7344 24.7188 11.1094 24.8125 11.5312L25.4219 14.2031C26.1719 14.4844 26.8281 14.9062 27.4844 15.375L30.0625 14.5781C30.4844 14.4375 30.9531 14.5312 31.2344 14.8594C31.6094 15.3281 31.9375 15.8438 32.2656 16.3594L32.5 16.7344C32.7812 17.25 33.0156 17.7656 33.25 18.3281H33.2031ZM22 26.25C23.3125 26.25 24.5312 25.5469 25.2344 24.375C25.8906 23.25 25.8906 21.7969 25.2344 20.625C24.5312 19.5 23.3125 18.75 22 18.75C20.6406 18.75 19.4219 19.5 18.7188 20.625C18.0625 21.7969 18.0625 23.25 18.7188 24.375C19.4219 25.5469 20.6406 26.25 22 26.25Z" fill="#D5D5D5"/>
</svg>
