<?xml version="1.0" encoding="utf-8"?>
<!-- Generator: Adobe Illustrator 25.2.3, SVG Export Plug-In . SVG Version: 6.00 Build 0)  -->
<svg version="1.1" id="Layer_1" xmlns="http://www.w3.org/2000/svg" xmlns:xlink="http://www.w3.org/1999/xlink" x="0px" y="0px"
	 viewBox="0 0 340 320" style="enable-background:new 0 0 340 320;" xml:space="preserve">
<style type="text/css">
	.st0{fill:#E4002B;}
</style>
<path class="st0" d="M163.36,233.96h13.25l-6.62-29.8L163.36,233.96z M169.97,198.83l-0.09-0.18l-32.84-61.46L84,125.8l20.45,52.13
	l62.45,19.95l3.07,0.97l0,0l0,0l0,0L169.97,198.83L169.97,198.83z M235.55,177.92l20.42-52.09l-53.03,11.36l0.01,0.01L170,198.85
	l0.77-0.24L235.55,177.92z M170.02,198.85l-0.02,0l0.07-0.16l-0.06,0.11l0.24-0.58l25.45-64.3l-25.71-47.89l-25.71,47.87
	l25.71,64.95l0,0l0,0l0,0l-48.74-9.67L91.43,212.6L129,225.03l40.97-26.17l0.01,0l0,0l0.01,0l0.01,0l0,0l0.01,0v0.01l0.01,0
	l-0.01-0.01L170.02,198.85z M170.37,198.78l-0.36,0.08l40.97,26.18l37.57-12.42l-29.82-23.43L170.37,198.78z"/>
</svg>
